{
  "accessors": [
    {
      "bufferView": 2,
      "componentType": 5126,
      "count": 65534,
      "max": [
        -0.5555800199508667,
        1.7272599935531616,
        9.2693710327148438
      ],
      "min": [
        -1.7886600494384766,
        -1.1816799640655518,
        8.0370111465454102
      ],
      "type": "VEC3"
    },
    {
      "bufferView": 2,
      "byteOffset": 786408,
      "componentType": 5126,
      "count": 65534,
      "max": [
        0.99978053569793701,
        0.99993777275085449,
        0.99937009811401367
      ],
      "min": [
        -0.99978464841842651,
        -0.99991387128829956,
        -0.9999271035194397
      ],
      "type": "VEC3"
    },
    {
      "bufferView": 3,
      "componentType": 5126,
      "count": 65534,
      "max": [
        0.99999964237213135,
        0.99999964237213135,
        0.99999910593032837,
        1
      ],
      "min": [
        -0.99999326467514038,
        -0.99999618530273438,
        -0.99999922513961792,
        -1
      ],
      "type": "VEC4"
    },
    {
      "bufferView": 0,
      "componentType": 5125,
      "count": 96708,
      "max": [
        65533
      ],
      "min": [
        0
      ],
      "type": "SCALAR"
    },
    {
      "bufferView": 2,
      "byteOffset": 1572816,
      "componentType": 5126,
      "count": 39540,
      "max": [
        -0.67522001266479492,
        1.6310900449752808,
        9.0800409317016602
      ],
      "min": [
        -1.61558997631073,
        -1.2500499486923218,
        8.1001911163330078
      ],
      "type": "VEC3"
    },
    {
      "bufferView": 2,
      "byteOffset": 2047296,
      "componentType": 5126,
      "count": 39540,
      "max": [
        0.99993062019348145,
        0.99973899126052856,
        0.99986010789871216
      ],
      "min": [
        -0.99978846311569214,
        -0.99998486042022705,
        -0.99987566471099854
      ],
      "type": "VEC3"
    },
    {
      "bufferView": 3,
      "byteOffset": 1048544,
      "componentType": 5126,
      "count": 39540,
      "max": [
        0.99999320507049561,
        0.99999743700027466,
        0.99999052286148071,
        1
      ],
      "min": [
        -0.99997967481613159,
        -0.9999995231628418,
        -0.99999797344207764,
        -1
      ],
      "type": "VEC4"
    },
    {
      "bufferView": 0,
      "byteOffset": 386832,
      "componentType": 5125,
      "count": 58746,
      "max": [
        39539
      ],
      "min": [
        0
      ],
      "type": "SCALAR"
    },
    {
      "bufferView": 2,
      "byteOffset": 2521776,
      "componentType": 5126,
      "count": 30992,
      "max": [
        1.5442299842834473,
        1.7068699598312378,
        9.9290914535522461
      ],
      "min": [
        -1.82955002784729,
        -1.4338400363922119,
        -0.16605900228023529
      ],
      "type": "VEC3"
    },
    {
      "bufferView": 2,
      "byteOffset": 2893680,
      "componentType": 5126,
      "count": 30992,
      "max": [
        1,
        1,
        1
      ],
      "min": [
        -1,
        -1,
        -1
      ],
      "type": "VEC3"
    },
    {
      "bufferView": 1,
      "componentType": 5126,
      "count": 30992,
      "max": [
        0.97681999206542969,
        0.99804002046585083
      ],
      "min": [
        0.0019499999471008778,
        0.0019499999471008778
      ],
      "type": "VEC2"
    },
    {
      "bufferView": 3,
      "byteOffset": 1681184,
      "componentType": 5126,
      "count": 30992,
      "max": [
        0.99995559453964233,
        0.99996620416641235,
        0.99991512298583984,
        1
      ],
      "min": [
        -0.99996852874755859,
        -0.99999797344207764,
        -0.99996048212051392,
        1
      ],
      "type": "VEC4"
    },
    {
      "bufferView": 0,
      "byteOffset": 621816,
      "componentType": 5125,
      "count": 171831,
      "max": [
        30991
      ],
      "min": [
        0
      ],
      "type": "SCALAR"
    },
    {
      "bufferView": 2,
      "byteOffset": 3265584,
      "componentType": 5126,
      "count": 6322,
      "max": [
        -0.57336002588272095,
        0.20944799482822418,
        7.9586977958679199
      ],
      "min": [
        -1.5676679611206055,
        -0.75126999616622925,
        6.9980621337890625
      ],
      "type": "VEC3"
    },
    {
      "bufferView": 2,
      "byteOffset": 3341448,
      "componentType": 5126,
      "count": 6322,
      "max": [
        0.99977076053619385,
        0.99951213598251343,
        0.99962878227233887
      ],
      "min": [
        -0.99977076053619385,
        -0.99950152635574341,
        -0.99962013959884644
      ],
      "type": "VEC3"
    },
    {
      "bufferView": 1,
      "byteOffset": 247936,
      "componentType": 5126,
      "count": 6322,
      "max": [
        0.99804002046585083,
        0.9944000244140625
      ],
      "min": [
        0.0019499999471008778,
        0.0019499999471008778
      ],
      "type": "VEC2"
    },
    {
      "bufferView": 3,
      "byteOffset": 2177056,
      "componentType": 5126,
      "count": 6322,
      "max": [
        0.99992334842681885,
        0.42681679129600525,
        0.99981480836868286,
        1
      ],
      "min": [
        -0.99964439868927002,
        -0.99998044967651367,
        -0.83461391925811768,
        1
      ],
      "type": "VEC4"
    },
    {
      "bufferView": 0,
      "byteOffset": 1309140,
      "componentType": 5125,
      "count": 37440,
      "max": [
        6321
      ],
      "min": [
        0
      ],
      "type": "SCALAR"
    },
    {
      "bufferView": 2,
      "byteOffset": 3417312,
      "componentType": 5126,
      "count": 6322,
      "max": [
        -0.53265398740768433,
        1.2104480266571045,
        7.9505448341369629
      ],
      "min": [
        -1.5284769535064697,
        0.24966199696063995,
        6.9899091720581055
      ],
      "type": "VEC3"
    },
    {
      "bufferView": 2,
      "byteOffset": 3493176,
      "componentType": 5126,
      "count": 6322,
      "max": [
        0.99995273351669312,
        0.99965864419937134,
        0.99962913990020752
      ],
      "min": [
        -0.99995273351669312,
        -0.99966466426849365,
        -0.99962013959884644
      ],
      "type": "VEC3"
    },
    {
      "bufferView": 1,
      "byteOffset": 298512,
      "componentType": 5126,
      "count": 6322,
      "max": [
        0.99804002046585083,
        0.9944000244140625
      ],
      "min": [
        0.0019499999471008778,
        0.0019499999471008778
      ],
      "type": "VEC2"
    },
    {
      "bufferView": 3,
      "byteOffset": 2278208,
      "componentType": 5126,
      "count": 6322,
      "max": [
        0.99994808435440063,
        0.39850026369094849,
        0.99981439113616943,
        1
      ],
      "min": [
        -0.99995815753936768,
        -0.99835455417633057,
        -0.83455079793930054,
        1
      ],
      "type": "VEC4"
    },
    {
      "bufferView": 0,
      "byteOffset": 1458900,
      "componentType": 5125,
      "count": 37440,
      "max": [
        6321
      ],
      "min": [
        0
      ],
      "type": "SCALAR"
    }
  ],
  "asset": {
    "generator": "Sketchfab (OSG glTF plugin)",
    "version": "2.0"
  },
  "bufferViews": [
    {
      "buffer": 0,
      "byteLength": 1608660,
      "byteOffset": 0,
      "name": "ScalarBufferView",
      "target": 34963
    },
    {
      "buffer": 0,
      "byteLength": 349088,
      "byteOffset": 1608660,
      "byteStride": 8,
      "name": "Vec3BufferView",
      "target": 34962
    },
    {
      "buffer": 0,
      "byteLength": 3569040,
      "byteOffset": 1957748,
      "byteStride": 12,
      "name": "Vec4BufferView",
      "target": 34962
    },
    {
      "buffer": 0,
      "byteLength": 2379360,
      "byteOffset": 5526788,
      "byteStride": 16,
      "name": "MatrixBufferView",
      "target": 34962
    }
  ],
  "buffers": [
    {
      "byteLength": 7906148,
      "uri": "scene.bin"
    }
  ],
  "images": [
    {
      "uri": "textures/Highpoly_Highpoly_blinnSG_normal.png"
    },
    {
      "uri": "textures/Highpoly_Highpoly_blinnSG_baseColor.png"
    },
    {
      "uri": "textures/eye_4_eye_4_blinnSG_baseColor.png"
    }
  ],
  "materials": [
    {
      "doubleSided": true,
      "emissiveFactor": [
        0,
        0,
        0
      ],
      "name": "Brow_blinnSG",
      "normalFactor": 1,
      "pbrMetallicRoughness": {
        "baseColorFactor": [
          0.5,
          0.5,
          0.5,
          1
        ],
        "metallicFactor": 0,
        "roughnessFactor": 1
      }
    },
    {
      "doubleSided": true,
      "emissiveFactor": [
        0,
        0,
        0
      ],
      "name": "Highpoly_Highpoly_blinnSG",
      "normalTexture": {
        "index": 0,
        "scale": 1,
        "texCoord": 0
      },
      "pbrMetallicRoughness": {
        "baseColorFactor": [
          1,
          1,
          1,
          1
        ],
        "baseColorTexture": {
          "index": 1,
          "texCoord": 0
        },
        "metallicFactor": 0.19073932930000001,
        "roughnessFactor": 0.13243140239999995
      }
    },
    {
      "doubleSided": true,
      "emissiveFactor": [
        0,
        0,
        0
      ],
      "name": "eye_4_eye_4_blinnSG",
      "pbrMetallicRoughness": {
        "baseColorFactor": [
          1,
          1,
          1,
          1
        ],
        "baseColorTexture": {
          "index": 2,
          "texCoord": 0
        },
        "metallicFactor": 0,
        "roughnessFactor": 0
      }
    }
  ],
  "meshes": [
    {
      "name": "Brow",
      "primitives": [
        {
          "attributes": {
            "NORMAL": 1,
            "POSITION": 0,
            "TANGENT": 2
          },
          "indices": 3,
          "material": 0,
          "mode": 4
        },
        {
          "attributes": {
            "NORMAL": 5,
            "POSITION": 4,
            "TANGENT": 6
          },
          "indices": 7,
          "material": 0,
          "mode": 4
        },
        {
          "attributes": {
            "NORMAL": 9,
            "POSITION": 8,
            "TANGENT": 11,
            "TEXCOORD_0": 10
          },
          "indices": 12,
          "material": 1,
          "mode": 4
        },
        {
          "attributes": {
            "NORMAL": 14,
            "POSITION": 13,
            "TANGENT": 16,
            "TEXCOORD_0": 15
          },
          "indices": 17,
          "material": 2,
          "mode": 4
        },
        {
          "attributes": {
            "NORMAL": 19,
            "POSITION": 18,
            "TANGENT": 21,
            "TEXCOORD_0": 20
          },
          "indices": 22,
          "material": 2,
          "mode": 4
        }
      ]
    }
  ],
  "nodes": [
    {
      "children": [
        1
      ],
      "name": "RootNode (gltf orientation matrix)",
      "rotation": [
        -0.70710678118654746,
        -0,
        -0,
        0.70710678118654757
      ]
    },
    {
      "children": [
        2
      ],
      "name": "RootNode (model correction matrix)"
    },
    {
      "children": [
        3
      ],
      "name": "PickleRick.obj.cleaner.materialmerger.gles"
    },
    {
      "mesh": 0,
      "name": "Brow"
    }
  ],
  "samplers": [
    {
      "magFilter": 9729,
      "minFilter": 9987,
      "wrapS": 10497,
      "wrapT": 10497
    }
  ],
  "scene": 0,
  "scenes": [
    {
      "name": "OSG_Scene",
      "nodes": [
        0
      ]
    }
  ],
  "textures": [
    {
      "sampler": 0,
      "source": 0
    },
    {
      "sampler": 0,
      "source": 1
    },
    {
      "sampler": 0,
      "source": 2
    }
  ]
}

